<?xml version="1.0" encoding="UTF-8" standalone="no"?>
<svg
   width="491.78009"
   height="449.25024"
   viewBox="0 0 491.78009 449.25024"
   fill="none"
   version="1.1"
   id="svg14"
   sodipodi:docname="nl.svg"
   inkscape:version="1.2.1 (9c6d41e410, 2022-07-14)"
   xmlns:inkscape="http://www.inkscape.org/namespaces/inkscape"
   xmlns:sodipodi="http://sodipodi.sourceforge.net/DTD/sodipodi-0.dtd"
   xmlns="http://www.w3.org/2000/svg"
   xmlns:svg="http://www.w3.org/2000/svg">
  <defs
     id="defs18" />
  <sodipodi:namedview
     id="namedview16"
     pagecolor="#ffffff"
     bordercolor="#666666"
     borderopacity="1.0"
     inkscape:showpageshadow="2"
     inkscape:pageopacity="0.0"
     inkscape:pagecheckerboard="0"
     inkscape:deskcolor="#d1d1d1"
     showgrid="false"
     inkscape:zoom="1.0307882"
     inkscape:cx="281.33811"
     inkscape:cy="121.26643"
     inkscape:window-width="2560"
     inkscape:window-height="1009"
     inkscape:window-x="-8"
     inkscape:window-y="-8"
     inkscape:window-maximized="1"
     inkscape:current-layer="svg14" />
  <path
     d="m 204.70217,116.35926 v 158.174 h -11.765 l -87.64343,-117.239 v 115.458 H 85.491675 v -157.952 h 11.9586 l 87.250795,117.243 v -115.684 z"
     fill="#000000"
     fill-opacity="0.06"
     id="path4" />
  <path
     d="m 308.80747,300.06126 v 39.939 h -95 v -191 h 32.708 v 151.061 z"
     fill="#000000"
     fill-opacity="0.06"
     id="path6" />
  <path
     d="m 403.17647,374.33526 c 14.243,0.041 22.713,10.886 22.666,29.01 -0.061,19.412 -19.59,42.125 -20.422,43.085 l -2.447,2.82 -2.433,-2.834 c -0.832,-0.964 -20.24,-23.789 -20.186,-43.206 0.048,-18.124 8.579,-28.915 22.822,-28.875 z"
     fill="#000000"
     fill-opacity="0.06"
     id="path8" />
  <path
     d="m 404.19047,182.08526 c 16.413,0.049 29.724,13.832 29.676,30.733 -0.04,16.895 -13.432,30.606 -29.845,30.557 -16.413,-0.045 -29.73,-13.832 -29.683,-30.733 0.048,-16.896 13.439,-30.602 29.852,-30.557 z m -33.847,-54.342 c -14.169,22.39 -31.089,59.411 -31.224,108.621 -0.048,16.645 1.379,33.415 3.623,49.566 l -21.402,31.283 c -5.867,8.577 -7.206,19.547 -3.569,29.347 l 17.501,47.175 c 0.859,2.323 2.88,3.956 5.273,4.265 l 0.798,0.054 c 2.116,0.006 4.11,-1.04 5.34,-2.843 l 18.523,-27.072 76.948,0.224 18.387,27.207 c 1.224,1.807 3.204,2.861 5.313,2.87 l 0.791,-0.05 c 2.393,-0.291 4.421,-1.91 5.287,-4.22 l 17.772,-47.112 c 3.684,-9.777 2.413,-20.757 -3.407,-29.364 l -21.227,-31.41 c 2.332,-16.137 3.84,-32.898 3.887,-49.538 0.135,-49.212 -16.582,-86.33 -30.629,-108.805 -15.257,-24.409 -30.44,-37.057003 -31.082,-37.582003 l -2.799,-2.31 -2.812,2.293 c -0.642,0.524 -15.893,13.083003 -31.292,37.401003 z"
     fill="#000000"
     fill-opacity="0.06"
     id="path10" />
  <path
     d="m 306.86747,392.84826 c -30.92,14.621 -65.335,20.99 -100.4254,18.182 -52.1328,-4.175 -99.49299,-28.09 -133.360295,-67.335 -33.8606,-39.245 -50.1724,-89.125 -45.9339,-140.448 4.2453,-51.329 28.5338,-97.956 68.3972,-131.295003 39.863395,-33.337 90.529195,-49.399 142.662395,-45.219 52.132,4.176 99.499,28.091 133.353,67.336 l 20.192,-16.886 c -38.444,-44.552 -92.206,-71.6999995 -151.396,-76.44599954 C 181.17337,-4.0027425 123.64617,14.229257 78.395075,52.079257 c -45.2578,37.85 -72.8316,90.784003 -77.64460002,149.051003 -4.81999998,58.267 13.69550002,114.891 52.14610002,159.447 38.4438,44.555 92.212495,71.704 151.395795,76.445 39.7151,3.18 78.6791,-3.997 113.6951,-20.493 z"
     fill="#000000"
     fill-opacity="0.06"
     id="path12" />
</svg>
