<?xml version="1.0" encoding="UTF-8" standalone="no"?>
<svg
   width="375"
   height="812"
   viewBox="0 0 375 812"
   fill="none"
   version="1.1"
   id="svg14"
   sodipodi:docname="nl.svg"
   inkscape:version="1.2 (dc2aedaf03, 2022-05-15)"
   xmlns:inkscape="http://www.inkscape.org/namespaces/inkscape"
   xmlns:sodipodi="http://sodipodi.sourceforge.net/DTD/sodipodi-0.dtd"
   xmlns="http://www.w3.org/2000/svg"
   xmlns:svg="http://www.w3.org/2000/svg">
  <defs
     id="defs18" />
  <sodipodi:namedview
     id="namedview16"
     pagecolor="#ffffff"
     bordercolor="#666666"
     borderopacity="1.0"
     inkscape:showpageshadow="2"
     inkscape:pageopacity="0.0"
     inkscape:pagecheckerboard="0"
     inkscape:deskcolor="#d1d1d1"
     showgrid="false"
     inkscape:zoom="1.0307882"
     inkscape:cx="171.2282"
     inkscape:cy="405.51493"
     inkscape:window-width="1920"
     inkscape:window-height="1017"
     inkscape:window-x="1912"
     inkscape:window-y="-8"
     inkscape:window-maximized="1"
     inkscape:current-layer="svg14" />
  <path
     d="M94.8947 401.359V559.533H83.1297L-4.51373 442.294V557.752H-24.3158V399.8H-12.3572L74.8936 517.043V401.359H94.8947Z"
     fill="black"
     fill-opacity="0.06"
     id="path4" />
  <path
     d="M199 585.061V625H104V434H136.708V585.061H199Z"
     fill="black"
     fill-opacity="0.06"
     id="path6" />
  <path
     d="M293.369 659.335C307.612 659.376 316.082 670.221 316.035 688.345C315.974 707.757 296.445 730.47 295.613 731.43L293.166 734.25L290.733 731.416C289.901 730.452 270.493 707.627 270.547 688.21C270.595 670.086 279.126 659.295 293.369 659.335V659.335Z"
     fill="black"
     fill-opacity="0.06"
     id="path8" />
  <path
     d="M294.383 467.085C310.796 467.134 324.107 480.917 324.059 497.818C324.019 514.713 310.627 528.424 294.214 528.375C277.801 528.33 264.484 514.543 264.531 497.642C264.579 480.746 277.97 467.04 294.383 467.085ZM260.536 412.743C246.367 435.133 229.447 472.154 229.312 521.364C229.264 538.009 230.691 554.779 232.935 570.93L211.533 602.213C205.666 610.79 204.327 621.76 207.964 631.56L225.465 678.735C226.324 681.058 228.345 682.691 230.738 683L231.536 683.054C233.652 683.06 235.646 682.014 236.876 680.211L255.399 653.139L332.347 653.363L350.734 680.57C351.958 682.377 353.938 683.431 356.047 683.44L356.838 683.39C359.231 683.099 361.259 681.48 362.125 679.17L379.897 632.058C383.581 622.281 382.31 611.301 376.49 602.694L355.263 571.284C357.595 555.147 359.103 538.386 359.15 521.746C359.285 472.534 342.568 435.416 328.521 412.941C313.264 388.532 298.081 375.884 297.439 375.359L294.64 373.049L291.828 375.342C291.186 375.866 275.935 388.425 260.536 412.743V412.743Z"
     fill="black"
     fill-opacity="0.06"
     id="path10" />
  <path
     d="M197.06 677.848C166.14 692.469 131.725 698.838 96.6346 696.03C44.5018 691.855 -2.85839 667.94 -36.7257 628.695C-70.5863 589.45 -86.8981 539.57 -82.6596 488.247C-78.4143 436.918 -54.1258 390.291 -14.2624 356.952C25.601 323.615 76.2668 307.553 128.4 311.733C180.532 315.909 227.899 339.824 261.753 379.069L281.945 362.183C243.501 317.631 189.739 290.483 130.549 285.737C71.3659 280.997 13.8387 299.229 -31.4124 337.079C-76.6702 374.929 -104.244 427.863 -109.057 486.13C-113.877 544.397 -95.3615 601.021 -56.9109 645.577C-18.4671 690.132 35.3016 717.281 94.4849 722.022C134.2 725.202 173.164 718.025 208.18 701.529L197.06 677.848Z"
     fill="black"
     fill-opacity="0.06"
     id="path12" />
</svg>
